<svg xmlns="http://www.w3.org/2000/svg" width="88.712" height="76.039" viewBox="0 0 88.712 76.039"><defs><style>.a{fill:none;stroke:#000;}.b{fill:none;stroke:#000;}.c{fill:none;stroke:#000;}.d{fill:none;stroke:#000;}.e{fill:none;stroke:#000; }</style></defs><path class="a" d="M272,272h88.712v12.673H272Z" transform="translate(-272 -214.971)"/><path class="a" d="M368,288v6.337h9.5V288Z" transform="translate(-364.832 -218.298)"/><path class="a" d="M368,288v6.337h9.5V288Z" transform="translate(-291.961 -218.298)"/><rect class="b" width="14" height="44" transform="translate(69 12.429)"/><rect class="c" width="8" height="38" transform="translate(61 18.429)"/><rect class="d" width="17" height="56" transform="translate(44 0.429)"/><rect class="c" width="13" height="50" rx="1" transform="translate(31 6.429)"/><rect class="b" width="11.089" height="44.356" transform="translate(21.914 12.143) rotate(25)"/><rect class="e" width="14" height="6" transform="translate(69 15.429)"/><path class="c" d="M2.011,6.1V0H4.022V8.713ZM0,0H2.011V6.1L0,8.713Z" transform="translate(56.175)"/><rect class="e" width="14" height="1" transform="translate(69 24.429)"/></svg>