<svg xmlns="http://www.w3.org/2000/svg" width="20" height="20" viewBox="0 0 20 20"><path d="M19.451,5.553l-1.8,1.8a.469.469,0,0,1-.664,0L12.65,3.018a.469.469,0,0,1,0-.664l1.8-1.8a1.879,1.879,0,0,1,2.652,0L19.451,2.9A1.872,1.872,0,0,1,19.451,5.553ZM11.1,3.9.845,14.159.016,18.905A.939.939,0,0,0,1.1,19.991l4.746-.832L16.107,8.9a.469.469,0,0,0,0-.664L11.771,3.9a.474.474,0,0,0-.668,0ZM4.849,13.28a.545.545,0,0,1,0-.773l6.016-6.016a.547.547,0,1,1,.773.773L5.622,13.28a.545.545,0,0,1-.773,0Zm-1.41,3.285H5.313v1.418l-2.52.441L1.579,17.21l.441-2.52H3.438Z" transform="translate(-0.002 -0.005)"/></svg>